<?xml version="1.0" encoding="UTF-8"?>
<svg width="1200pt" height="1200pt" version="1.1" viewBox="0 0 1200 1200" xmlns="http://www.w3.org/2000/svg">
 <path d="m937.55 504c-25.875 0-51.516 5.0156-75.469 14.766l-48-100.69v-72c0-17.484 14.203-31.688 31.688-31.688h56.297c9.6094-0.5625 19.031 2.8594 26.062 9.5156 7.0312 6.6094 11.016 15.844 11.016 25.453 0 9.6562-3.9844 18.891-11.016 25.5s-16.453 10.078-26.062 9.5156h-36.844c-6.6562 0-12 5.3438-12 12 0 6.6094 5.3438 12 12 12h37.312c16.078 0.70312 31.781-5.1562 43.453-16.312 11.625-11.156 18.234-26.578 18.234-42.703 0-16.078-6.6094-31.5-18.234-42.656-11.672-11.156-27.375-17.016-43.453-16.312h-56.297c-30.75 0-55.688 24.938-55.688 55.688v62.391h-346.55l-37.312-65.156h96.844c6.6094 0 12-5.3438 12-12 0-6.6094-5.3906-12-12-12h-155.53c-6.6094 0-12 5.3906-12 12 0 6.6562 5.3906 12 12 12h31.078l42.703 74.625-65.297 108.84h0.046875c-63.281-31.922-138.71-28.453-198.79 9.1875-60.047 37.688-96.047 104.02-94.875 174.89 1.1719 70.922 39.375 136.03 100.64 171.66 61.312 35.625 136.78 36.609 198.98 2.5781 62.203-34.078 102.05-98.156 105.05-169.03 3-70.828-31.266-138.1-90.375-177.28l58.312-97.312 113.62 198.71 0.046875 0.046874c-27.844 21.516-39.328 58.078-28.734 91.641 10.547 33.562 40.875 57 76.031 58.688s67.641-18.656 81.375-51.047c13.781-32.391 5.9062-69.891-19.734-94.031l142.31-200.76 39.938 84h0.046875c-58.219 31.781-97.125 90-104.25 155.9-7.125 65.906 18.469 131.11 68.531 174.52 50.062 43.453 118.27 59.625 182.48 43.266 64.219-16.312 116.39-63.094 139.64-125.16 23.203-62.109 14.578-131.63-23.156-186.1-37.734-54.516-99.797-87.047-166.08-87.141zm-496.69 202.69c0.14062 52.406-22.688 102.19-62.438 136.31-39.797 34.078-92.531 49.031-144.28 40.875-51.75-8.1094-97.359-38.531-124.74-83.203s-33.797-99.094-17.578-148.92 53.484-90.047 101.91-110.02 103.22-17.719 149.81 6.1875l-91.547 152.63c-2.5312 5.625-0.42188 12.234 4.9219 15.328 5.2969 3.0938 12.094 1.6406 15.703-3.3281l91.453-152.53v0.046875c48.141 33.281 76.828 88.078 76.781 146.63zm218.63 0h0.046875c0 24.281-14.625 46.125-37.031 55.406-22.453 9.3281-48.234 4.1719-65.391-12.984s-22.312-42.984-13.031-65.391 31.172-37.031 55.453-37.031c15.984-0.14062 31.359 6.1406 42.703 17.391 11.391 11.25 17.766 26.625 17.766 42.609zm-21.609-74.297h0.046875c-11.719-6.0469-24.703-9.2344-37.922-9.2344-10.5 0.046875-20.859 2.0156-30.609 5.9062l-112.17-196.13h322.08zm300 252.71 0.046875 0.046876c-53.109 0.046874-103.45-23.531-137.39-64.312-33.938-40.828-47.953-94.641-38.156-146.81 9.75-52.219 42.281-97.312 88.688-123.1l75.938 160.92c2.0156 4.2188 6.2812 6.8906 10.922 6.8438 1.7812 0 3.5625-0.42187 5.1562-1.2188 5.6719-3.0938 7.875-10.172 4.9219-15.938l-75.609-160.82c49.406-19.312 104.86-15.609 151.31 10.078 46.406 25.688 78.984 70.734 88.828 122.86 9.8906 52.125-3.9844 105.94-37.828 146.86-33.797 40.875-84.094 64.547-137.16 64.641z"/>
</svg>
