<?xml version="1.0" encoding="UTF-8"?>
<svg width="1200pt" height="1200pt" version="1.1" viewBox="0 0 1200 1200" xmlns="http://www.w3.org/2000/svg">
 <path d="m600 529.92c50.531 0 91.547-45.703 91.547-102s-41.062-102-91.547-102c-50.531 0-91.547 45.703-91.547 102s41.062 102 91.547 102zm0-183.71c39.375 0 71.297 36.609 71.297 81.703 0 45.141-32.062 81.703-71.297 81.703s-71.297-36.609-71.297-81.703c0-45.141 32.062-81.703 71.297-81.703z"/>
 <path d="m984.37 790.92-161.39-47.156-32.156-122.06c-8.2969-40.781-38.625-71.859-77.531-79.219l-44.297-8.3906c-5.5312-1.0781-10.781 2.625-11.859 8.0625-1.0781 5.5312 2.5312 10.781 8.0625 11.859l44.297 8.3906c30.703 5.7656 54.844 30.703 61.547 63.844l33.703 128.16c0.9375 3.4688 3.6094 6.1406 6.9375 7.2188l158.16 46.219c-4.7812 24.375-26.156 40.547-49.078 36.938l-144-21.938c-12.609-1.9219-22.781-11.766-25.922-25.078l-25.781-107.62c-1.2188-4.7812-5.5312-8.0625-10.453-7.7812-4.9219 0.23438-8.8594 4.0781-9.4688 9l-9.9375 87.234c-0.60938 5.5312 3.375 10.547 9 11.297 5.5312 0.60938 10.547-3.375 11.297-9l3.375-30 12.375 51.703c5.1562 21.375 21.844 37.219 42.609 40.453l46.781 7.2188-284.16 44.391-158.06-44.297 47.859-7.3125c20.766-3.1406 37.547-19.078 42.609-40.453l12.375-51.703 3.375 30c0.60938 5.5312 5.625 9.4688 11.297 9 5.5312-0.60938 9.6094-5.625 9-11.297l-9.9375-87.234c-0.60938-4.9219-4.5469-8.625-9.4688-9-4.7812-0.23438-9.375 3-10.453 7.7812l-25.781 107.62c-3.2344 13.312-13.312 23.156-25.922 25.078l-144 21.938c-22.922 3.4688-44.297-12.703-49.078-36.938l158.16-46.219c3.4688-0.9375 6.1406-3.7031 6.9375-7.2188l33.844-128.76c6.6094-32.625 30.703-57.469 61.453-63.234l44.297-8.3906c5.5312-1.0781 9.1406-6.375 8.0625-11.859-1.0781-5.5312-6.375-9.1406-11.859-8.0625l-44.297 8.3906c-38.859 7.3125-69.375 38.391-77.391 78.703l-32.297 122.63-161.39 47.156c-5.0625 1.4531-8.0625 6.4688-7.2188 11.531l1.4531 8.1562c5.7656 32.391 32.531 55.078 63 55.078 3.1406 0 6.2344-0.23438 9.375-0.70312l13.219-2.0625c-7.9219 7.7812-14.156 17.531-17.531 28.922-5.8594 19.312-3 40.219 7.9219 57.234 10.922 17.062 28.688 28.312 48.609 30.938l297.61 47.062c10.312 1.3125 20.766 2.2969 31.688 2.7656l80.531-1.4531c25.453 0.9375 47.297-17.859 50.297-42.844l64.922-2.7656c20.297-0.84375 39-10.547 51.375-26.531 12.375-15.938 17.156-36.469 12.938-56.391-3.1406-15.141-11.156-27.938-21.938-37.453l16.078 2.3906c3.1406 0.46875 6.2344 0.70312 9.375 0.70312 30.469 0 57.141-22.688 63-55.078l1.4531-8.1562c0.9375-5.1562-2.1562-10.078-7.2188-11.531zm-240 217.31-80.531 1.4531c-9.7031-0.46875-19.547-1.3125-29.062-2.5312l-297.61-47.062c-14.156-1.9219-26.625-9.8438-34.453-21.844-7.6875-12-9.7031-26.766-5.5312-40.312 6.375-20.766 25.453-34.312 46.312-34.312 3.8438 0 7.7812 0.46875 11.625 1.4531l177.94 49.781 114.84 32.156c0.70312 0.23438 1.5469 0.375 2.2969 0.375l97.078 4.3125c7.5469 0.375 14.531 3.6094 19.688 9.2344s7.7812 12.844 7.4531 20.391c-0.70312 15.609-13.922 27.844-30.234 27zm159.47-104.02c2.8594 13.922-0.375 28.453-9.1406 39.703-8.7656 11.297-21.938 18.141-36.234 18.703l-65.859 2.8594c-2.0625-6.7031-5.5312-12.938-10.453-18.375-8.7656-9.6094-20.766-15.234-33.703-15.844l-96-4.3125-69-19.312 265.31-41.531c25.547-3.9375 49.688 12.703 54.938 37.922z"/>
 <path d="m600 278.86c5.625 0 10.219-4.5469 10.219-10.219v-88.453c0-5.625-4.5469-10.219-10.219-10.219-5.625 0-10.219 4.5469-10.219 10.219v88.453c0 5.625 4.5469 10.219 10.219 10.219z"/>
 <path d="m420.61 357.14c2.0625 2.2969 4.7812 3.375 7.5469 3.375 2.3906 0 4.7812-0.84375 6.7031-2.5312 4.2188-3.7031 4.5469-10.219 0.84375-14.297l-58.781-66.234c-3.7031-4.2188-10.078-4.5469-14.297-0.84375s-4.5469 10.219-0.84375 14.297l58.781 66.234z"/>
 <path d="m221.76 600.24c-5.625 0-10.219 4.5469-10.219 10.219 0 5.625 4.5469 10.219 10.219 10.219h88.453c5.625 0 10.219-4.5469 10.219-10.219 0-5.625-4.5469-10.219-10.219-10.219z"/>
 <path d="m361.55 492.84c1.4531 0.70312 2.8594 0.9375 4.3125 0.9375 3.8438 0 7.4531-2.1562 9.1406-5.7656 2.3906-5.0625 0.23438-11.156-4.7812-13.547l-150.71-71.859c-5.0625-2.3906-11.156-0.23438-13.547 4.7812-2.3906 5.0625-0.23438 11.156 4.7812 13.547l150.71 71.859z"/>
 <path d="m771.84 360.47c2.7656 0 5.625-1.2188 7.5469-3.375l58.781-66.234c3.7031-4.2188 3.375-10.547-0.84375-14.297-4.2188-3.7031-10.547-3.375-14.297 0.84375l-58.781 66.234c-3.7031 4.2188-3.375 10.547 0.84375 14.297 1.9219 1.6875 4.3125 2.5312 6.7031 2.5312z"/>
 <path d="m978.24 620.53c5.625 0 10.219-4.5469 10.219-10.219 0-5.625-4.5469-10.219-10.219-10.219h-88.453c-5.625 0-10.219 4.5469-10.219 10.219 0 5.625 4.5469 10.219 10.219 10.219z"/>
 <path d="m993.94 407.39c-2.3906-5.0625-8.5312-7.2188-13.547-4.7812l-150.71 71.859c-5.0625 2.3906-7.2188 8.5312-4.7812 13.547 1.6875 3.6094 5.3906 5.7656 9.1406 5.7656 1.4531 0 3-0.375 4.3125-0.9375l150.71-71.859c5.0625-2.3906 7.2188-8.5312 4.7812-13.547z"/>
</svg>
