<?xml version="1.0" encoding="UTF-8"?>
<svg width="1200pt" height="1200pt" version="1.1" viewBox="0 0 1200 1200" xmlns="http://www.w3.org/2000/svg">
 <path d="m954.47 494.16c2.1562-5.625-0.23438-12-5.625-14.859-5.2969-2.7656-12-1.2188-15.469 3.7031l-91.922 131.63c0.60938-77.391-31.922-125.39-66.234-175.69-45-66.141-96.141-141.24-79.078-305.76 0.46875-4.5469-1.6875-9-5.5312-11.391-3.8438-2.3906-8.7656-2.3906-12.703 0-57.469 35.766-334.92 227.06-261.61 536.76-42.938-17.156-70.312-63.938-83.531-142.31-0.84375-4.7812-4.4531-8.625-9.1406-9.7031-4.7812-1.0781-9.6094 0.70313-12.469 4.6875-54.234 75.234-76.922 167.86-63.938 260.86 22.547 162 157.55 290.76 320.86 306.24 10.547 0.9375 21.141 1.4531 31.688 1.5469 0.46875 0 1.0781 0.14062 1.5469 0.14062h1.0781c151.55 0 288-94.547 339.24-239.16 18.234-51.469 18-134.29 7.2188-184.55-12.984-60.609-4.9219-134.44 5.625-162.14zm-339.32 561.37c-5.2969 0.09375-10.594 0.46875-15.984 0.46875-5.0625 0-10.078-0.375-15.141-0.84375-81.844-7.6875-149.53-72.234-160.78-153.37-5.1562-37.078 0.9375-74.062 17.297-106.55 12.234 39.141 33.938 61.922 64.922 67.688 4.0781 0.70312 8.2969-0.60938 11.062-3.7031 2.7656-3.1406 3.8438-7.3125 2.625-11.391-39.844-141 63.469-236.86 113.62-273.71-2.8594 80.625 24.375 120.71 48.609 156.47 21.938 32.297 39.375 57.844 31.453 108.84-0.84375 5.5312 2.1562 10.922 7.4531 12.938 5.1562 2.0625 11.156 0.23438 14.297-4.3125l35.859-51.469c-0.23437 15.703 0.84375 32.391 4.0781 47.391 5.2969 24.703 5.5312 66.938-3.375 92.062-23.766 68.109-85.594 114.09-156 119.48zm303.94-222.74c-31.688 89.297-98.156 158.06-180.61 194.39 24.469-22.078 43.922-50.297 55.547-83.062 10.453-29.391 10.312-76.453 4.2188-105-6.9375-32.531-2.7656-71.859 2.8594-86.625 2.1562-5.625-0.23438-12-5.625-14.859-5.2969-2.7656-12-1.2188-15.469 3.7031l-41.766 59.859c-3.6094-35.156-19.922-59.156-36.844-84.141-25.547-37.547-52.078-76.453-42.844-165.61 0.46875-4.5469-1.6875-9-5.5312-11.391s-8.7656-2.3906-12.703 0c-90.469 56.391-174.14 161.16-149.53 291.24-16.453-11.625-27.375-34.547-33.234-69.375-0.84375-4.7812-4.4531-8.625-9.1406-9.7031-4.7812-1.0781-9.6094 0.70312-12.469 4.6875-30.844 42.703-43.688 95.391-36.375 148.22 6.6094 47.062 29.859 89.156 63.469 120.24-101.06-46.781-176.16-142.92-192-256.45-10.781-77.297 4.7812-154.22 43.922-219.61 19.453 81.141 58.312 127.69 116.06 138.47 4.0781 0.84375 8.2969-0.60937 11.062-3.7031 2.7656-3.1406 3.8438-7.3125 2.625-11.391-78.469-277.55 142.31-459.84 225.47-517.08-10.453 156.24 40.219 230.76 85.219 297 39.375 57.844 73.312 107.77 58.547 203.76-0.84375 5.5312 2.1562 10.922 7.4531 12.938 5.1562 2.0625 11.156 0.375 14.297-4.3125l84.609-121.22c-3.6094 36.703-2.7656 80.625 5.1562 117.47 9.8438 46.078 10.172 124.78-6.375 171.56z"/>
</svg>
