<?xml version="1.0" encoding="UTF-8"?>
<svg width="1200pt" height="1200pt" version="1.1" viewBox="0 0 1200 1200" xmlns="http://www.w3.org/2000/svg">
 <path d="m1024.5 702.61c-5.7656-5.7656-12.844-9.4688-20.297-11.531l30.141-30.141c8.625-8.625 13.453-20.156 13.453-32.391s-4.7812-23.766-13.453-32.391l-58.922-58.922c-17.391-17.391-47.531-17.391-64.922 0l-134.86 134.63-247.82-247.78 134.9-134.86c17.859-17.859 17.859-47.062 0-64.922l-58.922-58.922c-17.859-17.859-47.062-17.859-64.922 0l-30.141 30.141c-2.0625-7.4531-5.7656-14.391-11.531-20.297l-42.141-42.141c-17.297-17.297-47.625-17.297-64.922 0l-76.547 76.547-8.2969-8.2969c-17.859-17.859-47.062-17.859-64.922 0l-38.625 38.625c-17.859 17.859-17.859 47.062 0 64.922l8.2969 8.2969-76.547 76.547c-8.7656 8.9062-13.547 20.438-13.547 32.672s4.7812 23.766 13.453 32.391l42.141 42.141c5.7656 5.7656 12.844 9.4688 20.297 11.531l-30.141 30.141c-8.625 8.625-13.453 20.156-13.453 32.391s4.7812 23.766 13.453 32.391l58.922 58.922c9 9 20.766 13.453 32.391 13.453 11.766 0 23.531-4.4531 32.531-13.453l134.86-134.86 247.78 247.78-135 135.1c-8.625 8.625-13.453 20.156-13.453 32.391s4.7812 23.766 13.453 32.391l58.922 58.922c9 9 20.625 13.453 32.391 13.453s23.531-4.4531 32.391-13.453l30.141-30.141c2.0625 7.4531 5.7656 14.391 11.531 20.297l42.141 42.141c8.625 8.625 20.156 13.453 32.391 13.453s23.766-4.7812 32.391-13.453l76.547-76.547 8.2969 8.2969c9 9 20.766 13.453 32.391 13.453 11.766 0 23.531-4.4531 32.531-13.453l38.625-38.625c8.625-8.625 13.453-20.156 13.453-32.391s-4.7812-23.766-13.453-32.391l-8.2969-8.2969 76.547-76.547c17.859-17.859 17.859-47.062 0-64.922zm-806.26-445.82 38.625-38.625c4.4531-4.4531 10.219-6.6094 15.938-6.6094 5.7656 0 11.531 2.1562 15.938 6.6094l8.2969 8.2969-70.453 70.453-8.2969-8.2969c-8.8125-8.7656-8.8125-23.062-0.046876-31.828zm-26.297 223.69-42.141-42.141c-4.2188-4.2188-6.6094-9.8438-6.6094-15.938 0-6.1406 2.2969-11.625 6.6094-15.938l256.69-256.69c4.2188-4.2188 9.8438-6.6094 15.938-6.6094 6.1406 0 11.625 2.2969 15.938 6.6094l42.141 42.141c8.7656 8.7656 8.7656 23.062 0 31.781l-256.78 256.78c-8.7188 8.7656-23.016 8.7656-31.781 0zm224.06 22.312-143.21 143.16c-8.7656 8.7656-23.062 8.7656-31.781 0l-58.922-58.922c-4.2188-4.2188-6.6094-9.9375-6.6094-15.938s2.3906-11.625 6.6094-15.938l373.22-373.22c4.4531-4.4531 10.219-6.6094 15.938-6.6094 5.7656 0 11.531 2.1562 15.938 6.6094l58.922 58.922c8.7656 8.7656 8.7656 23.062 0 31.781l-143.11 143.16zm24.797 8.2969 70.547-70.547 247.78 247.78-70.453 70.453zm261.84 448.31-58.219 58.219c-8.7656 8.7656-23.062 8.7656-31.781 0l-58.922-58.922c-4.2188-4.3125-6.6094-9.9375-6.6094-15.938s2.3906-11.625 6.6094-15.938l373.31-373.31c4.4531-4.4531 10.219-6.6094 15.938-6.6094 5.7656 0 11.531 2.1562 15.938 6.6094l58.922 58.922c4.2188 4.3125 6.6094 9.9375 6.6094 15.938s-2.3906 11.625-6.6094 15.938l-58.219 58.219zm279-16.688-38.625 38.625c-8.7656 8.7656-23.062 8.7656-31.781 0l-8.2969-8.2969 70.547-70.547 8.2969 8.2969c4.2188 4.3125 6.6094 9.9375 6.6094 15.938-0.14062 6.1406-2.5312 11.812-6.75 15.984zm68.297-149.76-84.844 84.844-87 87.141-84.844 84.844c-8.7656 8.7656-23.062 8.7656-31.781 0l-42.141-42.141c-8.7656-8.7656-8.7656-22.922 0-31.781l256.92-256.92c4.3125-4.3125 10.078-6.6094 15.844-6.6094s11.531 2.1562 15.938 6.6094l42.141 42.141c8.5312 8.8594 8.5312 23.156-0.23438 31.875z"/>
</svg>
