<?xml version="1.0" encoding="UTF-8"?>
<svg width="1200pt" height="1200pt" version="1.1" viewBox="0 0 1200 1200" xmlns="http://www.w3.org/2000/svg">
 <path d="m352.4 586.45 8.3438 7.875c45.234 45.234 70.125 105.47 70.125 169.6v262.31c0.046875 29.672 24.141 53.766 53.812 53.766s53.766-24.094 53.766-53.766v-262.31c0-64.125 24.891-124.36 70.547-170.02 2.2969-2.2969 4.8281-4.8281 7.5469-7.125 0.89062-0.75 1.4062-1.6875 2.0625-2.5781 46.969-48.094 77.016-120.89 77.016-202.22-0.046875-144.47-94.688-261.98-211.03-261.98s-210.98 117.52-210.98 261.98c0 81.609 30.234 154.6 77.484 202.69 0.46875 0.5625 0.75 1.2656 1.3125 1.7812zm159.37 439.78c0 14.953-12.141 27.094-27.094 27.094-14.953 0-27.094-12.141-27.094-27.094v-248.95h54.188zm0.65625-275.63h-55.5c-2.0625-42.047-13.734-82.219-34.172-118.17 19.594 7.4531 40.359 11.531 61.875 11.531 21.562 0 42.375-4.0781 61.969-11.578-20.438 35.859-32.109 76.125-34.172 118.22zm-27.844-603.94c101.62 0 184.31 105.56 184.31 235.31s-82.688 235.31-184.31 235.31c-101.62 0-184.31-105.56-184.31-235.31s82.688-235.31 184.31-235.31zm144.14 560.02c-0.42188 1.9688-0.51562 3.9844 0 6.0469 0.09375 0.42188 0.51562 0.60938 0.65625 0.98438 3.5625 32.672 17.156 64.453 42.188 89.438 24.188 24.188 55.312 38.391 88.828 42.141 0.51562 0.1875 0.9375 0.5625 1.4531 0.70313 1.125 0.28125 2.2969 0.42187 3.375 0.42187 0.5625 0 1.0312-0.46875 1.5938-0.51562 3.5156 0.23437 6.9375 1.0312 10.5 1.0312 39.938 0 77.531-15.562 105.75-43.828 31.453-31.453 45.375-73.547 42.891-114.8 0.46875-2.0156 0.60938-4.0781 0.046875-6.1875-0.14062-0.60938-0.5625-1.0781-0.79688-1.6875-3.6562-32.438-17.297-63.984-42.141-88.828s-56.391-38.438-88.875-42.094c-0.51562-0.23437-0.98438-0.60937-1.5469-0.75-2.1094-0.5625-4.1719-0.42187-6.1875 0-41.297-2.5312-83.438 11.344-114.94 42.844-31.5 31.594-45.375 73.734-42.797 115.08zm235.5 77.672c-21.656 21.656-50.109 33.797-80.484 35.391 9.6562-26.531 24.703-50.906 44.766-70.969 20.203-20.203 44.578-35.25 70.969-44.766-1.5 29.203-12.938 58.031-35.25 80.344zm-65.812-207.74c24.141 4.1719 47.25 15.328 65.812 33.938 18.609 18.609 29.766 41.766 33.938 65.859-33.047 10.5-63.562 28.547-88.453 53.484-24.75 24.75-42.797 55.219-53.484 88.406-24.797-4.2656-47.625-15.797-65.766-33.938-18.609-18.609-29.766-41.719-33.938-65.859 33.188-10.594 63.656-28.594 88.453-53.391s42.797-55.312 53.438-88.5zm-27.562-1.4062c-9.5625 26.531-24.609 50.906-44.766 71.062-20.062 20.062-44.438 35.109-70.969 44.672 1.5469-29.25 13.031-58.078 35.297-80.391 22.312-22.312 51.141-33.797 80.438-35.344z"/>
</svg>
