<?xml version="1.0" encoding="UTF-8"?>
<svg width="1200pt" height="1200pt" version="1.1" viewBox="0 0 1200 1200" xmlns="http://www.w3.org/2000/svg">
 <path d="m976.55 1119.7-148.78-129.47c-1.0781-0.9375-2.5312-1.4531-3.9375-1.4531h-228.37v-72.609c5.7656 3 12.141 4.6875 18.844 4.6875 9.8438 0 19.312-3.6094 26.625-10.219l108.61-96.469c6.375-5.625 10.688-12.469 12.703-20.062 3.7031-13.453 0.23437-27.609-9.2344-37.781l-80.531-88.781c-1.2188-1.5469-8.0625-11.391-9.375-16.219-2.0625-7.3125-3.2344-15-3.7031-22.922-3-49.078 0.23437-81.938 8.5312-137.06 0.70312-4.5469 2.625-8.8594 5.5312-12.609l119.62-148.31c11.391-14.156 10.312-34.547-2.7656-47.297l-148.31-146.34c-0.9375-0.84375-1.7812-1.6875-2.8594-2.5312-0.9375-36.469-19.078-64.688-42.141-64.688s-41.156 28.078-42.141 64.688c-0.9375 0.84375-1.9219 1.6875-2.8594 2.5312l-148.69 146.29c-12.938 12.844-14.156 33.141-2.7656 47.297l119.62 148.31 0.46875 0.60938c2.7656 3.2344 4.5469 6.9375 5.1562 10.781 8.1562 45.938 9.6094 71.062 6.4688 116.62-0.60938 9.6094-2.7656 19.312-6.2344 28.781-5.0625 14.062-11.156 36.375-11.156 63v290.16h-139.08c-1.4531 0-2.8594 0.46875-3.9375 1.4531l-148.78 129.47c-1.9219 1.6875-2.625 4.3125-1.6875 6.7031 0.84375 2.3906 3.1406 3.9375 5.625 3.9375h745.36c2.5312 0 4.7812-1.5469 5.625-3.9375 1.2188-2.2031 0.46875-4.875-1.4531-6.5625zm-449.16-421.18c0-24.844 5.625-45.703 10.453-58.781 3.8438-10.547 6.1406-21.375 6.8438-32.156 3.2344-46.781 1.7812-72.469-6.7031-119.62-1.0781-6-3.8438-11.625-7.9219-16.547l-120-148.69c-7.4531-9.2344-6.7031-22.547 1.7812-30.938l148.55-146.29c1.0781-1.0781 2.3906-2.0625 3.7031-3 1.6875-1.0781 2.7656-3.1406 2.7656-5.2969 0-28.547 12.469-53.062 27.703-55.312 2.7656 14.156 9 55.453 0.14062 108.84-3-0.14062-5.7656-0.375-6.8438-0.84375-2.3906-1.4531-5.5312-1.0781-7.4531 0.84375l-117.14 115.31c-2.2969 2.1562-2.3906 5.7656-0.46875 8.1562l79.078 98.062c1.2188 1.4531 2.8594 2.2969 4.6875 2.2969 1.7812 0 3.6094-0.84375 4.6875-2.2969 4.6875-5.7656 9.8438-10.547 15.375-14.531 9.4688 3.6094 19.688 5.5312 30.375 5.5312 10.453 0 20.391-1.9219 29.625-5.2969 5.8594 3.8438 11.531 8.625 16.312 14.156 1.2188 1.3125 3 2.1562 4.6875 2.0625 1.7812 0 3.4688-0.84375 4.6875-2.2969l78.938-97.781c1.9219-2.3906 1.7812-6-0.46875-8.1562l-117.14-115.31c-2.0625-1.9219-4.9219-2.3906-7.3125-0.9375-0.84375 0.375-2.2969 0.60938-4.2188 0.70312 8.5312-51.844 3.2344-91.688 0.14062-108 13.922 4.7812 24.703 27.844 24.703 54.703 0 2.0625 1.0781 3.9375 2.7656 5.1562 1.3125 0.84375 2.5312 1.7812 3.7031 3l148.55 146.29c8.5312 8.3906 9.2344 21.703 1.7812 30.938l-119.77 148.31c-4.3125 5.2969-7.0781 11.625-8.0625 18.375-8.3906 55.922-11.766 89.391-8.625 139.55 0.46875 8.625 1.9219 17.156 4.0781 25.312 2.1562 7.7812 10.922 20.062 12 21.141l80.625 89.062c6.6094 7.0781 9 17.062 6.4688 26.391-1.4531 5.1562-4.5469 10.078-9.1406 14.156l-108.61 96.469c-5.1562 4.5469-11.766 7.0781-18.609 7.0781-7.6875 0-15-3.1406-20.297-8.625-0.14062-0.14063-0.23438-0.23438-0.375-0.46875-0.375-0.375-0.60938-0.70313-0.9375-1.0781-9.4688-11.391-7.7812-29.156 3.7031-39.375l82.547-73.453c1.4531-1.2188 2.1562-3 2.0625-4.9219-0.14062-1.9219-1.0781-3.6094-2.625-4.6875-63.703-44.297-71.391-41.859-74.297-40.922-2.625 0.84375-5.3906 1.4531-8.1562 1.9219-1.2188 0.14063-2.2969 0.70313-3.1406 1.4531-2.625 2.2969-3.6094 3.1406-6.8438 62.297-1.3125 23.766-2.3906 47.625-2.625 54.469-11.625 14.766-12.141 36.375-0.14062 50.859v134.06c0 7.6875-3.1406 14.859-8.625 20.297-5.625 5.2969-12.938 8.0625-20.625 7.6875-14.625-0.70312-26.625-13.688-26.625-28.922l0.1875-340.4zm-3.8438-380.76c0-40.453 32.859-73.453 73.453-73.453 40.453 0 73.453 32.859 73.453 73.453 0 40.547-32.859 73.453-73.453 73.453-40.547 0-73.453-32.906-73.453-73.453zm159 0c0-47.156-38.391-85.547-85.547-85.547s-85.547 38.391-85.547 85.547c0 31.688 17.297 59.297 42.844 74.156-2.625 2.1562-5.1562 4.5469-7.5469 7.0781l-71.062-88.078 110.62-108.84c6.1406 1.3125 15.234 1.3125 21.375 0l110.62 108.84-71.062 88.078c-2.5312-2.5312-5.1562-4.7812-7.7812-6.8438 25.688-14.766 43.078-42.609 43.078-74.391zm-80.625 430.69c1.7812-0.375 3.4688-0.84375 5.1562-1.3125 6.4688 1.3125 33.609 18 58.078 34.688l-69 61.312c1.5469-35.766 4.0781-81.844 5.7656-94.688zm-223.45 252.32h28.453l-107.86 117.38h-55.312zm-63 117.38 107.86-117.38h91.781v38.391c0 21.938 16.781 40.078 38.156 41.062h1.9219c10.312 0 20.156-3.8438 27.703-11.062 8.0625-7.6875 12.469-18 12.469-29.062l0.09375-39.328h181.08l107.86 117.38zm585.61 0-107.86-117.38h28.453l134.76 117.38z"/>
</svg>
